#!OML:ASF G:\JayActor3\Patient Classification 1\Patient 1\Session 6\male.ASF
:FULLY-SPECIFIED
:DEGREES
1132
root -1.44362 16.2547 -21.6549 172.508 -34.554 -173.172
lowerback -1.46075 0.613529 2.23217
upperback 2.18137 0.705171 0.613302
thorax 3.08002 0.382431 -0.591965
lowerneck 2.14152 -2.31382 1.73495
upperneck -4.94379 -3.03422 0.676882
head -1.91842 -1.57885 -0.0098492
rclavicle 1.17202e-013 -8.74653e-015
rhumerus 25.2407 15.3807 -32.2641
rradius 127.346
rwrist -69.8097
rhand -36.361 -35.1968
rfingers 7.12502
rthumb -9.45814 -64.9646
lclavicle 1.17202e-013 -8.74653e-015
lhumerus -33.4358 10.4016 78.7171
lradius 22.2483
lwrist 15.4036
lhand -14.8656 11.9455
lfingers 7.12502
lthumb 11.2944 41.6214
rfemur -12.5318 7.90239 19.2755
rtibia 35.105
rfoot -18.5716 -11.2462
rtoes -0.703521
lfemur -0.914027 11.733 -17.1009
ltibia 26.9613
lfoot -23.4432 15.1508
ltoes -2.16579
1133
root -1.44214 16.2548 -21.6514 172.508 -34.503 -173.189
lowerback -1.45302 0.622151 2.25077
upperback 2.1956 0.716135 0.601384
thorax 3.09108 0.388549 -0.614135
lowerneck 1.82758 -2.25544 1.79287
upperneck -4.39806 -2.96021 0.651451
head -1.68724 -1.53509 -0.0377255
rclavicle -2.27205e-014 8.34896e-015
rhumerus 25.1049 16.0327 -32.3981
rradius 126.928
rwrist -70.0597
rhand -36.2944 -35.2321
rfingers 7.12502
rthumb -9.39386 -65.0028
lclavicle -2.27205e-014 8.34896e-015
lhumerus -33.3745 10.4553 78.6477
lradius 22.292
lwrist 15.4974
lhand -14.6204 12.0092
lfingers 7.12502
lthumb 11.5308 41.672
rfemur -12.5457 7.9098 19.262
rtibia 35.1033
rfoot -18.5372 -11.2209
rtoes -0.694723
lfemur -0.904798 11.7296 -17.1207
ltibia 26.9508
lfoot -23.4488 15.1974
ltoes -2.13527
1134
root -1.44035 16.2549 -21.6481 172.509 -34.4482 -173.204
lowerback -1.45035 0.633258 2.26607
upperback 2.21183 0.730294 0.589923
thorax 3.10711 0.39623 -0.633788
lowerneck 1.51898 -2.19813 1.84317
upperneck -3.85886 -2.88872 0.636309
head -1.46121 -1.49283 -0.0601675
rclavicle 5.38458e-014 -5.96354e-015
rhumerus 24.9585 16.714 -32.5418
rradius 126.493
rwrist -70.2477
rhand -36.2232 -35.2445
rfingers 7.12502
rthumb -9.32516 -65.0183
lclavicle 5.38458e-014 -5.96354e-015
lhumerus -33.3122 10.4546 78.6136
lradius 22.348
lwrist 15.5917
lhand -14.4566 12.0743
lfingers 7.12502
lthumb 11.6888 41.7282
rfemur -12.5605 7.92133 19.252
rtibia 35.102
rfoot -18.5037 -11.1981
rtoes -0.694945
lfemur -0.896158 11.7321 -17.1367
ltibia 26.9419
lfoot -23.4542 15.2413
ltoes -2.10694
1135
root -1.43794 16.255 -21.6451 172.511 -34.3848 -173.215
lowerback -1.4493 0.647586 2.27589
upperback 2.22667 0.74882 0.581538
thorax 3.12264 0.405917 -0.647011
lowerneck 1.21773 -2.14206 1.88991
upperneck -3.32792 -2.81994 0.626004
head -1.24127 -1.4521 -0.0796126
rclavicle 4.15739e-014 7.55382e-015
rhumerus 24.8013 17.4227 -32.7005
rradius 126.042
rwrist -70.3771
rhand -36.158 -35.2463
rfingers 7.12502
rthumb -9.26226 -65.0228
lclavicle 4.15739e-014 7.55382e-015
lhumerus -33.2505 10.4527 78.5813
lradius 22.4233
lwrist 15.7126
lhand -14.2635 12.1595
lfingers 7.12502
lthumb 11.875 41.8028
rfemur -12.5806 7.94839 19.2499
rtibia 35.1013
rfoot -18.4725 -11.1826
rtoes -0.694492
lfemur -0.892679 11.7393 -17.1457
ltibia 26.9356
lfoot -23.4594 15.2851
ltoes -2.0742
1136
root -1.43513 16.2552 -21.6422 172.514 -34.3206 -173.227
lowerback -1.44604 0.66142 2.27683
upperback 2.23905 0.767035 0.575557
thorax 3.13421 0.415175 -0.652853
lowerneck 0.918057 -2.08388 1.93538
upperneck -2.79699 -2.74956 0.616232
head -1.0238 -1.4106 -0.0980163
rclavicle -1.00523e-013 2.14687e-014
rhumerus 24.6335 18.1627 -32.8738
rradius 125.572
rwrist -70.442
rhand -36.1189 -35.2639
rfingers 7.12502
rthumb -9.2245 -65.0421
lclavicle -1.00523e-013 2.14687e-014
lhumerus -33.1938 10.4371 78.5595
lradius 22.5133
lwrist 15.8414
lhand -14.0749 12.2511
lfingers 7.12502
lthumb 12.0569 41.8838
rfemur -12.602 7.97989 19.2493
rtibia 35.0999
rfoot -18.4435 -11.168
rtoes -0.691982
lfemur -0.893827 11.7492 -17.1533
ltibia 26.934
lfoot -23.4658 15.3258
ltoes -2.03298
1137
root -1.43179 16.2555 -21.6396 172.517 -34.252 -173.234
lowerback -1.43888 0.676526 2.27181
upperback 2.24764 0.787212 0.574089
thorax 3.13958 0.425141 -0.650714
lowerneck 0.627239 -2.02552 1.97532
upperneck -2.27451 -2.67989 0.612054
head -0.812458 -1.36962 -0.113007
rclavicle -2.49723e-014 1.19271e-015
rhumerus 24.453 18.9327 -33.0644
rradius 125.088
rwrist -70.4521
rhand -36.1276 -35.2856
rfingers 7.12502
rthumb -9.23291 -65.0635
lclavicle -2.49723e-014 1.19271e-015
lhumerus -33.1429 10.4072 78.5494
lradius 22.6162
lwrist 15.9743
lhand -13.9012 12.3428
lfingers 7.12502
lthumb 12.2244 41.9656
rfemur -12.6255 8.02185 19.2562
rtibia 35.0968
rfoot -18.4146 -11.1586
rtoes -0.687253
lfemur -0.900009 11.7649 -17.153
ltibia 26.9371
lfoot -23.4736 15.3625
ltoes -1.99096
1138
root -1.42838 16.2557 -21.6369 172.514 -34.189 -173.233
lowerback -1.42553 0.691672 2.27239
upperback 2.25417 0.807401 0.574864
thorax 3.13936 0.435141 -0.649498
lowerneck 0.339626 -1.97017 2.01126
upperneck -1.75798 -2.61532 0.611247
head -0.605495 -1.3313 -0.125647
rclavicle -7.43455e-014 -3.97569e-015
rhumerus 24.2521 19.7263 -33.2699
rradius 124.599
rwrist -70.4297
rhand -36.1822 -35.3353
rfingers 7.12502
rthumb -9.28561 -65.1108
lclavicle -7.43455e-014 -3.97569e-015
lhumerus -33.0941 10.3476 78.5585
lradius 22.7254
lwrist 16.0959
lhand -13.7621 12.4155
lfingers 7.12502
lthumb 12.3584 42.0302
rfemur -12.6463 8.06092 19.2706
rtibia 35.0915
rfoot -18.3869 -11.1504
rtoes -0.685193
lfemur -0.908199 11.7755 -17.1455
ltibia 26.943
lfoot -23.4813 15.3979
ltoes -1.94826
1139
root -1.42509 16.256 -21.6341 172.509 -34.1364 -173.23
lowerback -1.40864 0.70513 2.27468
upperback 2.2603 0.825393 0.575501
thorax 3.13671 0.444058 -0.649528
lowerneck 0.0534317 -1.91777 2.04251
upperneck -1.24628 -2.55572 0.614785
head -0.402145 -1.29558 -0.13568
rclavicle 3.51166e-014 4.77083e-015
rhumerus 24.0299 20.5419 -33.4895
rradius 124.11
rwrist -70.3776
rhand -36.271 -35.4011
rfingers 7.12502
rthumb -9.3713 -65.1728
lclavicle 3.51166e-014 4.77083e-015
lhumerus -33.0453 10.2528 78.5911
lradius 22.8374
lwrist 16.2014
lhand -13.6827 12.4566
lfingers 7.12502
lthumb 12.435 42.0667
rfemur -12.6629 8.0877 19.2839
rtibia 35.0847
rfoot -18.358 -11.1385
rtoes -0.673268
lfemur -0.915796 11.7802 -17.1378
ltibia 26.9483
lfoot -23.4898 15.4276
ltoes -1.89493
1140
root -1.42194 16.2563 -21.6315 172.503 -34.0931 -173.228
lowerback -1.38996 0.718687 2.27591
upperback 2.26766 0.843552 0.575884
thorax 3.13431 0.453034 -0.649237
lowerneck -0.231988 -1.86977 2.06678
upperneck -0.743794 -2.50299 0.623657
head -0.203461 -1.26343 -0.142635
rclavicle 2.57178e-014 1.03368e-014
rhumerus 23.7851 21.3692 -33.7232
rradius 123.624
rwrist -70.3074
rhand -36.3578 -35.4724
rfingers 7.12502
rthumb -9.45505 -65.2403
lclavicle 2.57178e-014 1.03368e-014
lhumerus -32.9901 10.1418 78.6379
lradius 22.955
lwrist 16.3137
lhand -13.6164 12.4955
lfingers 7.12502
lthumb 12.4989 42.1017
rfemur -12.6761 8.10349 19.2935
rtibia 35.0773
rfoot -18.3304 -11.1213
rtoes -0.660851
lfemur -0.920622 11.7833 -17.1326
ltibia 26.9501
lfoot -23.4919 15.4606
ltoes -1.87772
